<?xml version="1.0" encoding="UTF-8" standalone="no"?>
<!-- Created with Inkscape (http://www.inkscape.org/) -->

<svg
   width="500mm"
   height="301.17969mm"
   viewBox="0 0 500 301.17969"
   version="1.1"
   id="svg5"
   inkscape:version="1.1 (c68e22c387, 2021-05-23)"
   sodipodi:docname="Logo PNC El Salvador.svg"
   xmlns:inkscape="http://www.inkscape.org/namespaces/inkscape"
   xmlns:sodipodi="http://sodipodi.sourceforge.net/DTD/sodipodi-0.dtd"
   xmlns="http://www.w3.org/2000/svg"
   xmlns:svg="http://www.w3.org/2000/svg">
  <sodipodi:namedview
     id="namedview7"
     pagecolor="#505050"
     bordercolor="#ffffff"
     borderopacity="1"
     inkscape:pageshadow="0"
     inkscape:pageopacity="0"
     inkscape:pagecheckerboard="1"
     inkscape:document-units="mm"
     showgrid="false"
     fit-margin-top="0"
     fit-margin-left="0"
     fit-margin-right="0"
     fit-margin-bottom="0"
     inkscape:zoom="0.62992818"
     inkscape:cx="102.39263"
     inkscape:cy="292.09679"
     inkscape:window-width="1366"
     inkscape:window-height="705"
     inkscape:window-x="-8"
     inkscape:window-y="-8"
     inkscape:window-maximized="1"
     inkscape:current-layer="layer1" />
  <defs
     id="defs2" />
  <g
     inkscape:label="Layer 1"
     inkscape:groupmode="layer"
     id="layer1"
     transform="translate(120.03146,-111.10566)">
    <path
       style="fill:#012d6e;fill-opacity:1;stroke-width:0.530928"
       d="m 126.83543,411.38701 c -1.63268,-1.1173 -2.03584,-1.67237 -2.43251,-3.34905 -1.08221,-4.57447 -1.51515,-5.57827 -3.21961,-7.4649 -3.92812,-4.34795 -12.2884,-8.6679 -34.267514,-17.70677 -22.928005,-9.42913 -32.76394,-14.25345 -43.155988,-21.1672 -7.56688,-5.03418 -18.317015,-14.031 -18.317015,-15.3296 0,-0.2475 3.82461,-0.4501 8.499133,-0.4501 h 8.499137 l 4.641328,3.33932 c 4.038405,2.9055 7.04661,4.75503 15.525357,9.54525 3.76591,2.12763 17.066265,8.03153 29.201038,12.96208 20.420574,8.29715 30.458204,13.44917 36.055974,18.5064 l 2.17084,1.96122 2.17084,-1.96122 c 6.0203,-5.43898 14.45131,-9.69313 38.97607,-19.66675 8.53294,-3.4701 22.76763,-9.87928 26.28093,-11.83293 7.78886,-4.3312 11.38294,-6.5337 15.52536,-9.51405 l 4.64133,-3.33932 h 8.49914 c 4.67452,0 8.49913,0.2025 8.49913,0.4501 0,0.65425 -5.46523,5.742 -10.17714,9.4742 -11.99358,9.49982 -23.53836,15.5789 -51.37771,27.05362 -22.05605,9.09098 -30.26233,13.3331 -34.1789,17.66825 -1.7706,1.95985 -3.00913,4.8868 -3.01588,7.12728 -0.002,0.54022 -0.81528,1.79455 -1.80812,2.78737 -1.4322,1.4322 -2.2305,1.80515 -3.86382,1.80515 -1.13228,0 -2.6494,-0.40425 -3.3714,-0.89835 z M -1.4571271,297.88064 c -18.2340399,-3.3085 -31.9689399,-15.29005 -36.5291099,-31.8659 -1.220705,-4.43718 -1.643723,-14.16368 -0.83678,-19.24025 0.838367,-5.27428 3.454515,-12.2657 6.111315,-16.33195 3.143942,-4.81183 9.987747,-11.30833 14.726957,-13.97965 7.929835,-4.46978 15.9591804,-6.46105 26.052488,-6.46105 9.693065,0 15.770198,1.34282 23.48072,5.1884 5.044025,2.5157 7.819653,4.48947 11.527578,8.19742 8.625292,8.62528 13.221937,20.919 12.436047,33.26013 -0.440272,6.9137 -1.573012,11.1266 -4.73121,17.59632 -2.36127,4.83718 -3.356972,6.21415 -7.52583,10.40768 -5.322265,5.35372 -10.059145,8.41895 -16.827802,10.8892 -8.177826,2.98452 -19.2227831,3.91127 -27.8843731,2.33965 z M 14.98157,277.42446 c 11.065308,-3.41772 17.365306,-14.22815 15.743988,-27.01575 -1.003442,-7.91437 -5.845717,-14.8961 -12.657095,-18.24932 -5.258527,-2.20662 -15.0605938,-2.13522 -19.8308151,-0.0215 -9.8032779,4.64388 -14.7831949,15.53083 -12.5730229,27.48675 1.108605,5.997 4.029675,10.85618 8.6442929,14.37968 2.338565,1.78565 6.30125002,3.61917 8.85674,4.09802 3.3561975,0.62888 8.5498771,0.33093 11.8159121,-0.67785 z m 187.10002,20.3984 c -5.01459,-0.90632 -12.46041,-3.63655 -16.6419,-6.10227 -4.34405,-2.56155 -11.78924,-10.07613 -14.42707,-14.56148 -6.90969,-11.74925 -7.9399,-28.0696 -2.56371,-40.61355 5.53987,-12.92582 15.43712,-21.15702 30.34186,-25.23427 4.34541,-1.1887 17.16845,-1.63948 22.4629,-0.7896 5.99987,0.96307 12.20226,3.21837 16.91413,6.15027 4.10147,2.5521 10.26473,7.9934 10.26473,9.06238 0,0.3019 -3.36346,3.6068 -7.47436,7.34415 l -7.47435,6.7952 -2.21508,-2.12905 c -6.1282,-5.89018 -11.14654,-7.80265 -19.62793,-7.48015 -2.43294,0.0207 -5.88269,0.42472 -8.88904,1.83732 -3.79843,1.78475 -7.6129,5.1168 -9.6487,8.42838 -4.4814,7.2898 -4.69054,19.1771 -0.46726,26.55852 7.66037,13.38873 26.94505,15.37908 38.20234,3.94283 l 2.53988,-2.58028 7.52724,6.89783 c 4.13999,3.7938 7.52726,7.08877 7.52726,7.3222 0,0.98567 -7.46648,7.49232 -10.9871,9.57467 -9.47116,5.60195 -23.22473,7.77088 -35.36384,5.5769 z m -322.11305,-43.52202 v -42.77318 l 24.555425,0.19675 c 23.62405,0.18925 24.70645,0.242 28.537368,1.39058 9.367905,2.80867 16.875795,8.26142 20.331455,14.76612 2.10936,3.9705 3.561677,10.20745 3.552455,15.25593 -0.01525,8.4101 -2.455765,14.84 -7.771525,20.47617 -7.77566,8.24435 -17.211608,11.15708 -36.154928,11.16035 l -8.627575,0.002 v 11.14948 11.1495 h -12.211325 -12.21135 z m 41.696225,0.78152 c 5.939325,-1.09795 9.06434,-3.65005 10.342645,-8.4465 0.724555,-2.7187 0.3511,-7.32992 -0.766937,-9.4697 -1.064618,-2.03755 -3.430858,-4.136 -5.877608,-5.21237 -1.691225,-0.74403 -4.14778,-1.18649 -11.65268,-1.35161 l -9.31897,0.003 v 12.52835 12.5284 h 7.070025 c 3.8885,0 8.480075,-0.26068 10.203525,-0.57928 z m 141.473911,-0.74805 v -42.7397 h 12.207325 12.207325 l 0.13675,32.93625 0.13675,32.93625 20.175264,0.114 20.17526,0.114 0.1447,9.68943 0.1447,9.68942 H 95.802698 63.138651 Z m 69.551564,0 v -42.7397 h 12.21134 12.21134 v 42.7397 42.7397 h -12.21134 -12.21134 z m 121.58249,0 v -42.7397 h 12.21135 12.21134 v 42.7397 42.7397 h -12.21134 -12.21135 z m 26.5464,42.51005 c 0,-0.1265 2.24879,-5.32277 4.99731,-11.54767 18.10133,-40.99633 22.66873,-51.36023 27.26997,-61.8782 l 5.16315,-11.80243 12.13814,0.122 12.13815,0.122 8.35895,18.84795 c 15.83794,35.71175 28.81583,65.04028 29.07333,65.7023 0.20212,0.51975 -2.48882,0.66193 -12.40821,0.65558 l -12.66633,-0.008 -3.27093,-8.08855 -3.27094,-8.08855 h -18.1799 -18.17993 l -3.22972,8.09665 -3.22972,8.09665 h -12.35166 c -6.79341,0 -12.35166,-0.10325 -12.35166,-0.22975 z m 59.90105,-34.94432 c -0.41815,-1.61658 -10.28682,-25.87435 -10.52475,-25.87043 -0.2463,0.005 -10.14305,24.30453 -10.52476,25.84243 -0.13685,0.55105 2.00289,0.69167 10.52476,0.69167 8.29473,0 10.65787,-0.149 10.52475,-0.66367 z M 25.800571,194.97789 c -0.996075,-16.27958 -5.778393,-28.05038 -16.397328,-40.35903 -3.6134101,-4.1884 -3.7097851,-4.37457 -3.4513251,-6.66765 0.2578375,-2.2875 0.788965,-2.88135 17.5327731,-19.60225 l 17.266872,-17.2433 2.68109,0.25763 c 3.283665,0.31552 3.878133,0.78695 5.99102,4.75112 2.160813,4.05413 7.377568,8.92493 11.839495,11.05443 14.281798,6.81607 34.702963,2.66715 60.883802,-12.36963 4.11324,-2.3624 6.75223,-3.54997 7.88863,-3.54997 1.1364,0 3.77538,1.18757 7.88863,3.54997 26.18083,15.03678 46.602,19.1857 60.88379,12.36963 4.50023,-2.14778 9.67725,-6.9976 11.87875,-11.12808 1.8968,-3.55872 3.64018,-4.79152 6.77606,-4.79152 1.9178,0 2.71198,0.71045 19.19556,17.1715 16.70451,16.6817 17.20262,17.23917 17.46237,19.54365 0.26066,2.31255 0.17227,2.48252 -3.52153,6.77102 -9.18618,10.66518 -13.69228,20.3556 -15.70036,33.76383 -0.43732,2.92012 -0.79654,6.80252 -0.79826,8.6276 l -0.003,3.3183 h -6.10567 -6.10568 v -2.06745 c 0,-3.82048 1.11497,-13.02533 2.13242,-17.60458 2.26387,-10.18905 6.69446,-20.08172 12.45354,-27.80645 l 3.31531,-4.44687 -10.79688,-10.78723 -10.79687,-10.78725 -3.06484,3.10445 c -3.57514,3.62135 -9.04316,7.33705 -13.40616,9.10988 -5.92873,2.40905 -10.32786,3.1409 -18.59426,3.0933 -9.00623,-0.0517 -14.94954,-1.12925 -24.74786,-4.4864 -5.76098,-1.97383 -19.61632,-8.39663 -25.82302,-11.97053 l -2.52191,-1.45212 -2.52191,1.45212 c -6.20307,3.5718 -20.0604,9.99615 -25.81356,11.96728 -9.611712,3.29317 -16.220739,4.4835 -25.022787,4.50675 -13.53846,0.0358 -22.27148,-3.23368 -30.94593,-11.58535 l -3.868602,-3.72465 -10.789508,10.77987 -10.789505,10.77988 3.315315,4.44687 c 5.759078,7.72473 10.189665,17.6174 12.453538,27.80645 1.017447,4.57925 2.132417,13.7841 2.132417,17.60458 v 2.06745 h -6.024985 -6.024992 z m 95.457079,-10.6631 c 0.14837,-0.91068 0.53336,-3.2087 0.85554,-5.10678 l 0.58578,-3.45105 -2.83555,-2.66885 c -4.86064,-4.57492 -4.89453,-4.30535 0.63613,-5.06115 l 4.84623,-0.66227 2.19776,-4.43143 c 1.20878,-2.4373 2.3302,-4.43145 2.49206,-4.43145 0.16185,0 1.28328,1.99415 2.49205,4.43145 l 2.19777,4.43143 4.82262,0.65905 c 2.65243,0.36247 4.82261,0.77187 4.82261,0.90982 0,0.13775 -1.57349,1.73413 -3.49664,3.54715 l -3.49664,3.29638 0.58321,3.44097 c 0.32076,1.89253 0.7046,4.18605 0.85297,5.09673 l 0.26976,1.65575 -4.52386,-2.3485 -4.52385,-2.3485 -4.52386,2.3485 -4.52386,2.3485 z m -43.057364,-0.72663 c 0.184,-1.09505 0.489195,-3.26327 0.67819,-4.8183 l 0.343627,-2.82732 -3.366365,-3.39655 c -1.851505,-1.86813 -3.236387,-3.52658 -3.077517,-3.68543 0.158875,-0.159 2.38786,-0.5598 4.953312,-0.89095 l 4.664468,-0.60215 2.077295,-4.43282 c 1.142507,-2.43805 2.191775,-4.43283 2.3317,-4.43283 0.139925,0 1.224412,2.00283 2.409957,4.4507 l 2.155553,4.4507 5.042295,0.66738 5.042299,0.66735 -3.585624,3.61335 -3.585633,3.6133 0.68005,4.57097 c 0.374023,2.51403 0.545658,4.70535 0.381405,4.86963 -0.164275,0.16425 -2.121425,-0.70175 -4.349257,-1.92448 l -4.05061,-2.2231 -4.15326,2.16075 c -2.284293,1.18843 -4.32723,2.16078 -4.539855,2.16078 -0.212625,0 -0.23605,-0.89593 -0.05202,-1.99098 z m 86.342114,1.32733 c -0.002,-0.36503 0.27993,-2.52573 0.62635,-4.8016 l 0.62986,-4.13795 -3.59752,-3.6253 -3.59752,-3.6253 2.30751,-0.32173 c 1.26913,-0.177 3.541,-0.47445 5.04859,-0.66112 l 2.74109,-0.3394 2.15551,-4.45063 c 1.18553,-2.44787 2.27,-4.45065 2.40993,-4.45065 0.13992,0 1.18919,1.99478 2.3317,4.43283 l 2.07729,4.43282 4.66447,0.60215 c 2.56545,0.33115 4.79445,0.73208 4.95331,0.89095 0.15887,0.159 -1.2395,1.8309 -3.10749,3.71565 l -3.39633,3.4268 0.66315,4.58663 c 0.36474,2.52262 0.55093,4.69885 0.41376,4.83602 -0.13717,0.13725 -2.15985,-0.74452 -4.49485,-1.95932 l -4.24545,-2.20873 -3.93702,2.16075 c -4.31461,2.36803 -4.64118,2.47323 -4.64634,1.49713 z"
       id="path555"
       sodipodi:nodetypes="ssssssscsssscsssscssssscsssssssssscsssssssccssssscssssssscscsssscsssscccsscscccccccccscccccscccccccccccccccccccccccccscccccccssscccssccccccccsssscssscssccsscsscsssssssccccssscccsscsscsssscccsssccccsscsscssscssscsscccccssccscccssscccccssscsssscsccccscssscscscssscscs" />
    <path
       d="m 121.25765,184.31479 c 0.14837,-0.91068 0.53336,-3.2087 0.85554,-5.10678 l 0.58578,-3.45105 -2.83555,-2.66885 c -4.86064,-4.57492 -4.89453,-4.30535 0.63613,-5.06115 l 4.84623,-0.66227 2.19776,-4.43143 c 1.20878,-2.4373 2.3302,-4.43145 2.49206,-4.43145 0.16185,0 1.28328,1.99415 2.49205,4.43145 l 2.19777,4.43143 4.82262,0.65905 c 2.65243,0.36247 4.82261,0.77187 4.82261,0.90982 0,0.13775 -1.57349,1.73413 -3.49664,3.54715 l -3.49664,3.29638 0.58321,3.44097 c 0.32076,1.89253 0.7046,4.18605 0.85297,5.09673 l 0.26976,1.65575 -4.52386,-2.3485 -4.52385,-2.3485 -4.52386,2.3485 -4.52386,2.3485 z m -43.057364,-0.72663 c 0.184,-1.09505 0.48919,-3.26327 0.67819,-4.8183 l 0.34363,-2.82732 -3.36637,-3.39655 c -1.8515,-1.86813 -3.23639,-3.52658 -3.07752,-3.68543 0.15888,-0.159 2.38786,-0.5598 4.95332,-0.89095 l 4.66446,-0.60215 2.0773,-4.43282 c 1.14251,-2.43805 2.19177,-4.43283 2.3317,-4.43283 0.13992,0 1.22441,2.00283 2.40995,4.4507 l 2.15556,4.4507 5.04229,0.66738 5.042304,0.66735 -3.585624,3.61335 -3.58563,3.6133 0.68005,4.57097 c 0.37402,2.51403 0.54565,4.70535 0.3814,4.86963 -0.16427,0.16425 -2.12142,-0.70175 -4.34926,-1.92448 l -4.05061,-2.2231 -4.15326,2.16075 c -2.28429,1.18843 -4.32723,2.16078 -4.53985,2.16078 -0.21263,0 -0.23605,-0.89593 -0.052,-1.99098 z m 86.342104,1.32733 c -0.003,-0.36503 0.27993,-2.52573 0.62637,-4.8016 l 0.62984,-4.13795 -3.59751,-3.6253 -3.59751,-3.6253 2.30751,-0.32173 c 1.26913,-0.177 3.541,-0.47445 5.04859,-0.66112 l 2.74109,-0.3394 2.1555,-4.45063 c 1.18552,-2.44787 2.27,-4.45065 2.40993,-4.45065 0.13992,0 1.1892,1.99478 2.3317,4.43283 l 2.0773,4.43282 4.66447,0.60215 c 2.56545,0.33115 4.79443,0.73208 4.95331,0.89095 0.15886,0.159 -1.23952,1.8309 -3.1075,3.71565 l -3.39632,3.4268 0.66315,4.58663 c 0.36473,2.52262 0.55091,4.69885 0.41375,4.83602 -0.13716,0.13725 -2.15984,-0.74452 -4.49484,-1.95932 l -4.24546,-2.20873 -3.93702,2.16075 c -4.31462,2.36803 -4.64119,2.47323 -4.64635,1.49713 z"
       style="fill:#6c6c6c;stroke-width:0.140475;fill-opacity:1"
       id="path1694" />
    <path
       d="m 40.905146,334.76884 c -7.96912,-1.88153 -12.50736,-12.85848 -8.47645,-20.50253 2.29511,-4.35235 6.20842,-6.95405 11.241,-7.47347 3.38663,-0.34953 8.18717,0.8961 10.15363,2.63465 1.30561,1.1543 1.3159,1.21702 0.39446,2.40647 l -0.9461,1.22125 -2.89769,-1.3488 c -3.26723,-1.52085 -6.53957,-1.7374 -9.23509,-0.6111 -6.78052,2.83308 -8.22372,12.70168 -2.62259,17.93333 3.30177,3.08397 7.50739,3.40272 12.21602,0.92585 l 3.09839,-1.62985 0.99072,1.22347 c 0.98479,1.21618 0.98008,1.23235 -0.78804,2.70973 -3.09391,2.58515 -8.46398,3.61225 -13.12826,2.511 z m 38.47655,-0.50205 c -3.09371,-1.24713 -5.2066,-3.14288 -7.13188,-6.39898 -1.23349,-2.0861 -1.41187,-2.9616 -1.40631,-6.90205 0.005,-3.60067 0.23877,-4.94947 1.15614,-6.67282 2.72675,-5.1224 8.53386,-8.13523 14.36047,-7.4504 3.76783,0.44282 6.43737,1.85905 9.00706,4.77837 6.003964,6.82085 3.81177,18.00293 -4.35478,22.2132 -3.06746,1.58143 -8.29824,1.776 -11.6307,0.43268 z m 9.10641,-3.4991 c 2.50357,-1.04605 3.73654,-2.17808 4.89332,-4.49265 1.37314,-2.74745 1.66257,-5.02558 1.01946,-8.02428 -1.47811,-6.89217 -9.38801,-10.04345 -15.3336,-6.10882 -5.18211,3.42935 -5.83277,12.26205 -1.22228,16.59237 3.01671,2.83343 6.93616,3.58223 10.6431,2.03338 z m 108.118084,3.67455 c -6.93566,-2.45978 -10.65588,-10.39633 -8.45108,-18.02918 2.36902,-8.2013 12.41517,-12.16762 20.40485,-8.056 2.64813,1.36278 3.10195,2.247 1.93556,3.77118 -0.72655,0.9494 -0.85934,0.93282 -3.71322,-0.46345 -3.76565,-1.84238 -7.62928,-1.6945 -10.81534,0.41392 -5.36046,3.54738 -5.78821,12.31588 -0.82691,16.94993 3.27708,3.06092 7.43707,3.38957 12.20349,0.96415 l 3.12764,-1.59153 0.98237,1.18515 c 0.97187,1.17255 0.96337,1.20103 -0.7964,2.67143 -3.37889,2.82325 -9.54616,3.78202 -14.05096,2.1844 z M -21.278864,320.96576 v -13.80412 l 1.99098,2.7e-4 c 1.9897,2.6e-4 1.99524,0.005 8.62758,9.82305 3.65013,5.40244 6.87552,10.1858 7.16753,10.62965 0.36046,0.54789 0.47838,-2.60597 0.36725,-9.82305 l -0.16368,-10.63002 h 2.15466 2.15466 v 13.80412 13.80413 h -2.04582 c -1.93195,0 -2.18094,-0.1995 -4.4737,-3.58375 -1.33533,-1.97108 -4.55001,-6.71843 -7.14374,-10.54963 l -4.71585,-6.96575 0.23155,10.54963 0.23155,10.5496 h -2.19148 -2.19148 z m 26.80346,11.84408 c 0.44228,-1.11205 2.68407,-7.27808 4.98174,-13.70233 l 4.17761,-11.6804 2.1266,-0.16 c 1.64797,-0.124 2.21258,0.0553 2.50859,0.7964 0.21011,0.526 1.53411,4.18175 2.94226,8.12388 1.40814,3.94215 3.41677,9.54055 4.46361,12.4409 1.04685,2.90035 1.90336,5.4687 1.90336,5.70747 0,0.23875 -0.89594,0.43338 -1.99098,0.43248 l -1.99098,-0.002 -1.29819,-3.98031 -1.29818,-3.98032 h -5.16144 -5.16144 l -1.2801,3.84923 -1.28009,3.84922 -2.22326,0.16375 -2.22325,0.1635 z m 15.13985,-9.58633 c 0,-0.67022 -3.29621,-10.46402 -3.64982,-10.84445 -0.18267,-0.1965 -1.19827,2.25238 -2.25687,5.442 l -1.92472,5.79935 h 3.9157 c 2.15364,0 3.91571,-0.1785 3.91571,-0.3969 z m 40.35052,-2.25775 v -13.80412 h 1.85825 1.85825 v 12.96432 c 0,7.13038 0.14502,13.34223 0.32226,13.8041 0.26163,0.6818 -0.088,0.83983 -1.85824,0.83983 h -2.18052 z m 43.536104,0 v -13.80412 l 1.99098,0.0175 c 1.98904,0.0175 1.99767,0.0277 8.89304,10.26985 l 6.90205,10.2521 0.14396,-10.26985 0.14395,-10.26985 h 2.11248 2.1125 v 13.8041 13.80415 h -2.05966 -2.05967 l -6.3529,-9.16655 c -3.49409,-5.04163 -6.73873,-9.8797 -7.21031,-10.7513 -0.81373,-1.50398 -0.85851,-1.03683 -0.87869,9.16655 l -0.0212,10.75126 h -1.85825 -1.85825 z m 28.38259,7.30025 c 1.27707,-3.57712 3.47866,-9.72925 4.89239,-13.67137 l 2.5704,-7.16753 2.21963,-0.16175 c 2.10497,-0.15325 2.24616,-0.071 2.73312,1.59278 0.28244,0.96495 2.4475,7.10517 4.81132,13.64495 2.36376,6.5398 4.29776,11.97517 4.29776,12.07862 0,0.1035 -0.89848,0.188 -1.99663,0.188 H 150.465 l -1.37665,-3.84922 -1.37663,-3.84925 h -5.21005 -5.21006 l -1.28306,3.84925 -1.28308,3.84922 h -2.05689 -2.05689 z m 13.42498,-5.30927 c -0.13713,-0.365 -1.04346,-3.09348 -2.01406,-6.06328 l -1.76473,-5.39962 -1.52504,4.60322 c -0.83876,2.5318 -1.7332,5.26025 -1.98764,6.06328 l -0.4626,1.46007 h 4.00171 c 2.98038,0 3.93804,-0.16925 3.75236,-0.66367 z m 12.34707,-1.99098 v -13.80412 h 1.85825 1.85825 v 12.21135 12.21135 h 6.3678 c 6.31569,0 6.36599,0.01 6.14514,1.19457 -0.12248,0.65703 -0.24046,1.37378 -0.26215,1.59278 -0.0217,0.219 -3.62321,0.3982 -8.00338,0.3982 h -7.96391 z m 58.933,0 v -13.80412 h 1.85825 1.85825 v 13.80412 13.80413 h -1.85825 -1.85825 z m 17.84914,13.3752 c -0.14581,-0.236 -1.60928,-4.1183 -3.25215,-8.62757 -1.64288,-4.50925 -3.80741,-10.3982 -4.81008,-13.08655 -1.00263,-2.68833 -1.82298,-5.01778 -1.82298,-5.17655 0,-0.15875 0.92819,-0.28865 2.06262,-0.28865 h 2.06264 l 2.98614,8.62757 c 1.6424,4.74518 3.40203,9.86225 3.91033,11.3713 l 0.92413,2.7437 3.95693,-11.37127 3.95688,-11.3713 h 2.01604 c 1.10882,0 2.01602,0.15725 2.01602,0.34962 0,0.19225 -2.20998,6.40395 -4.91109,13.80368 l -4.91105,13.45407 -1.95966,5.3e-4 c -1.07781,2.3e-4 -2.07894,-0.19275 -2.22472,-0.4285 z m 18.25399,-13.3752 v -13.80412 h 1.85822 1.85827 v 13.80412 13.80413 h -1.85827 -1.85822 z m 11.14946,0 v -13.80412 h 2.12373 2.12368 v 12.21135 12.21135 h 6.10571 6.10563 v 1.59277 1.59278 h -8.22939 -8.22939 z"
       style="fill:#233f89;stroke-width:0.140475;fill-opacity:1"
       id="path1829" />
  </g>
</svg>
