<?xml version="1.0" encoding="UTF-8"?>
<!DOCTYPE svg  PUBLIC '-//W3C//DTD SVG 1.1//EN'  'http://www.w3.org/Graphics/SVG/1.1/DTD/svg11.dtd'>
<svg enable-background="new 0 0 546 688.5" version="1.1" viewBox="0 0 546 688.5" xml:space="preserve" xmlns="http://www.w3.org/2000/svg">
			<ellipse cx="273.8" cy="345.4" rx="247.5" ry="326.5" fill="#fff"/>
		<g fill="none" stroke-miterlimit="10">
			<ellipse cx="273.8" cy="345.1" rx="250" ry="324.3" stroke="#C9A554" stroke-width="15"/>
			<ellipse cx="273.8" cy="343.1" rx="247.5" ry="324.3" stroke="#DDBC26" stroke-width="8"/>
		</g>
		<g fill="none" stroke-miterlimit="10">
			<ellipse cx="271.2" cy="343.7" rx="178.4" ry="240.8" stroke="#C9A554" stroke-width="15"/>
			<ellipse cx="271.2" cy="341.7" rx="176.6" ry="240.8" stroke="#DDBC26" stroke-width="8"/>
		</g>
					<path d="m58.7 430.8l-1.6-6.8-4-0.1-1.4-6.1 24.7 1.9 1.5 6.5-21.3 12.6-1.5-6.3 3.6-1.7zm4.7-2.4l7.8-4.1-8.8-0.2 1 4.3z" fill="#C9A554"/>
					<path d="m64.8 439.1l2.1 5.5c-1 0.4-1.8 0.9-2.2 1.5-0.7 0.9-0.9 1.9-0.6 3 0.3 0.8 0.7 1.4 1.3 1.7s1.2 0.4 1.8 0.2 1-0.5 1.4-1.1c0.3-0.6 0.5-1.7 0.4-3.4-0.1-2.8 0.3-4.9 1.1-6.3s2.1-2.4 3.9-3c1.2-0.3 2.3-0.4 3.5-0.1s2.3 0.9 3.2 1.8c0.9 1 1.7 2.4 2.3 4.4 0.7 2.4 0.7 4.4 0 6s-2.2 2.9-4.5 3.8l-2-5.4c1-0.5 1.6-1 1.9-1.6s0.4-1.3 0.1-2.2c-0.2-0.7-0.5-1.1-1-1.4-0.4-0.2-0.9-0.3-1.4-0.1-0.4 0.1-0.6 0.3-0.8 0.7s-0.3 1.1-0.2 2.2c0.1 2.8 0 4.8-0.4 6.1-0.3 1.3-0.9 2.4-1.8 3.2s-1.9 1.4-3.1 1.8c-1.5 0.4-2.9 0.5-4.3 0.2s-2.6-1-3.6-2-1.8-2.5-2.3-4.3c-1-3.2-0.9-5.7 0.2-7.4s2.7-2.9 5-3.8z" fill="#C9A554"/>
					<path d="m74.7 458.4c3.6-1.3 6.7-1.5 9.4-0.6 2.6 0.9 4.5 2.9 5.6 5.9 1.2 3.1 1 5.8-0.3 8.3-1.4 2.4-3.8 4.3-7.4 5.6-2.6 1-4.8 1.4-6.8 1.3-1.9-0.1-3.6-0.7-5-1.7s-2.5-2.6-3.3-4.7-1-4-0.7-5.7 1.1-3.3 2.5-4.7 3.5-2.8 6-3.7zm2.2 5.7c-2.2 0.8-3.7 1.8-4.4 2.8-0.7 1.1-0.9 2.2-0.4 3.4s1.3 2 2.5 2.3 3.1 0 5.5-0.9c2.1-0.8 3.5-1.7 4.2-2.8s0.8-2.2 0.4-3.4-1.3-1.9-2.5-2.2c-1.3-0.2-3.1 0-5.3 0.8z" fill="#C9A554"/>
					<path d="m87.1 494.5l0.5 5.7c-1.8 0.4-3.4 0.5-4.8 0.3s-2.6-0.7-3.7-1.5-1.9-2-2.7-3.6c-0.9-2-1.3-3.7-1.2-5.3s0.8-3.2 2.1-4.9 3.3-3.1 6-4.3c3.6-1.6 6.7-2.1 9.3-1.3 2.6 0.7 4.6 2.5 5.9 5.4 1 2.3 1.3 4.3 0.8 6.1s-1.7 3.5-3.7 5.2l-3.5-4.3c0.6-0.5 1-0.9 1.2-1.2 0.4-0.5 0.6-1.1 0.7-1.7s0-1.1-0.3-1.7c-0.6-1.3-1.6-2-3.1-2.1-1.1-0.1-2.7 0.3-4.6 1.2-2.4 1.1-3.9 2.1-4.5 3.1s-0.7 2.1-0.2 3.2 1.2 1.7 2.2 1.9 2.1 0.2 3.6-0.2z" fill="#C9A554"/>
					<path d="m103.8 496.8l2.8 5.4-20.9 10.9-2.8-5.4 20.9-10.9z" fill="#C9A554"/>
					<path d="m98.1 527l-3.6-6-3.8 1.2-3.2-5.4 24.1-5.7 3.4 5.7-16.5 18.5-3.3-5.5 2.9-2.8zm3.7-3.7l6.2-6.2-8.4 2.5 2.2 3.7z" fill="#C9A554"/>
					<path d="m115.9 543.3l1.5 5.5c-1.7 0.7-3.2 1.1-4.7 1.2s-2.7-0.2-3.9-0.8-2.3-1.6-3.3-3.1c-1.2-1.8-2-3.4-2.1-5-0.2-1.5 0.2-3.3 1.2-5.2s2.6-3.7 5-5.4c3.2-2.3 6.1-3.3 8.9-3.1 2.7 0.2 5 1.6 6.9 4.2 1.4 2 2.1 4 1.9 5.9s-1.1 3.8-2.7 5.8l-4.3-3.6c0.5-0.6 0.8-1 0.9-1.4 0.3-0.6 0.4-1.2 0.3-1.8 0-0.6-0.2-1.1-0.6-1.6-0.8-1.1-2-1.6-3.5-1.5-1.1 0.1-2.6 0.8-4.3 2-2.1 1.5-3.4 2.8-3.8 3.9s-0.3 2.2 0.4 3.1c0.7 1 1.5 1.5 2.5 1.5 1.2 0.4 2.4 0.1 3.7-0.6z" fill="#C9A554"/>
					<path d="m132.7 542.3l3.9 4.8-18.4 14.9-3.9-4.8 18.4-14.9z" fill="#C9A554"/>
					<path d="m130.2 558.2c2.8-2.6 5.6-4 8.4-4.2 2.8-0.1 5.3 1 7.5 3.3 2.3 2.4 3.2 5 2.9 7.7s-1.9 5.4-4.7 8c-2 1.9-3.9 3.1-5.8 3.8-1.8 0.6-3.6 0.8-5.3 0.3-1.7-0.4-3.3-1.4-4.8-3s-2.5-3.3-2.9-4.9c-0.4-1.7-0.2-3.4 0.5-5.4 0.8-1.8 2.2-3.7 4.2-5.6zm4.2 4.5c-1.7 1.6-2.7 3.1-3 4.3-0.3 1.3 0.1 2.4 0.9 3.3 0.9 1 2 1.4 3.2 1.2s2.8-1.2 4.8-3c1.6-1.5 2.6-2.9 2.8-4.2s-0.1-2.3-1-3.3c-0.8-0.9-1.9-1.3-3.2-1.1s-2.8 1.1-4.5 2.8zm15.9-9.5l3.2 3.5-6.5 0.1-1.8-1.9 5.1-1.7z" fill="#C9A554"/>
					<path d="m155.2 567.3l4.3 3.8-2.9 14.8 8.6-9.9 4.4 3.8-15.5 17.8-4.4-3.8 2.9-14.7-8.5 9.8-4.4-3.8 15.5-17.8z" fill="#C9A554"/>
					<path d="m189.7 616.1l-6.1-3.3-2.7 3-5.5-3 17.8-17.2 5.9 3.2-4.7 24.3-5.6-3.1 0.9-3.9zm1.4-5.1l2.1-8.5-6 6.4 3.9 2.1z" fill="#C9A554"/>
					<path d="m210.6 620.4l1.8-4.6 8.8 3.4-3.6 9.4c-2.2 0.7-4.1 1.1-5.6 1.1s-3.1-0.4-4.9-1c-2.2-0.9-3.8-2-4.9-3.4-1-1.4-1.6-3.2-1.7-5.2-0.1-2.1 0.3-4.2 1.2-6.5 0.9-2.4 2.2-4.3 3.7-5.8s3.3-2.3 5.2-2.6c1.5-0.2 3.4 0.1 5.5 0.9 2 0.8 3.5 1.6 4.3 2.4s1.4 1.8 1.7 3 0.4 2.6 0.1 4.1l-6-1c0.1-0.9 0-1.7-0.4-2.4s-1-1.1-1.8-1.5c-1.3-0.5-2.5-0.4-3.6 0.4-1.1 0.7-2.2 2.2-3 4.5-0.9 2.4-1.2 4.2-0.9 5.5 0.4 1.3 1.2 2.2 2.6 2.8 0.6 0.2 1.3 0.4 2 0.4s1.5-0.1 2.4-0.4l0.8-2.1-3.7-1.4z" fill="#C9A554"/>
					<path d="m235.3 632.6l-6.8-1.6-1.8 3.6-6.1-1.4 12.6-21.3 6.5 1.5 1.9 24.7-6.3-1.5v-4zm-0.1-5.2l-0.2-8.8-4 7.8 4.2 1z" fill="#C9A554"/>
					<path d="m248.5 615.2l10.1 1c2.2 0.2 3.8 1 4.8 2.3 1 1.4 1.4 3.2 1.1 5.5-0.2 2.4-1 4.2-2.3 5.4s-3.2 1.7-5.7 1.5l-3.3-0.3-0.8 8.7-6.1-0.6 2.2-23.5zm5.2 10.6l1.5 0.1c1.2 0.1 2-0.1 2.5-0.5s0.8-1 0.9-1.8c0.1-0.7-0.1-1.4-0.4-1.9-0.4-0.6-1.1-0.9-2.3-1l-1.7-0.2-0.5 5.3z" fill="#C9A554"/>
					<path d="m268.2 616.8l16.4-0.5 0.2 5-10.3 0.3 0.1 3.8 9.5-0.3 0.2 4.8-9.5 0.3 0.1 4.7 10.6-0.3 0.2 5.3-16.7 0.5-0.8-23.6z" fill="#C9A554"/>
					<path d="m306.9 613l8.8-2.3c1.7-0.5 3.2-0.6 4.4-0.3s2.3 0.8 3.3 1.7 1.8 1.9 2.5 3.3c0.7 1.3 1.2 2.7 1.7 4.3 0.7 2.4 0.9 4.4 0.8 5.9s-0.5 2.8-1 3.9c-0.6 1.1-1.3 2-2.2 2.5-1.2 0.8-2.3 1.3-3.4 1.6l-8.8 2.3-6.1-22.9zm7.3 3.6l3.3 12.5 1.5-0.4c1.2-0.3 2.1-0.7 2.5-1.2s0.7-1.1 0.8-2-0.1-2.3-0.6-4.1c-0.6-2.4-1.4-4-2.3-4.7s-2.1-0.9-3.7-0.5l-1.5 0.4z" fill="#C9A554"/>
					<path d="m327.3 607.2l15.3-6 1.9 4.7-9.6 3.8 1.4 3.5 8.9-3.5 1.8 4.5-8.9 3.5 1.7 4.3 9.8-3.9 2 5-15.6 6.1-8.7-22z" fill="#C9A554"/>
					<path d="m362.6 590.7l13.7-9 2.8 4.2-8.6 5.7 2.1 3.1 8-5.3 2.7 4-8 5.3 2.6 3.9 8.8-5.8 2.9 4.5-14 9.2-13-19.8z" fill="#C9A554"/>
					<path d="m379.2 579.5l4.8-3.8 11.2 13.9 7.5-6 3.7 4.5-12.2 9.9-15-18.5z" fill="#C9A554"/>
					<path d="m411.3 572.8l3.7-4.5c0.9 0.7 1.7 1.1 2.4 1.2 1.1 0.2 2.1-0.1 2.9-1 0.6-0.6 0.9-1.3 0.9-2s-0.3-1.2-0.7-1.7c-0.4-0.4-1-0.6-1.7-0.6s-1.7 0.4-3.2 1.3c-2.4 1.5-4.4 2.2-6 2.2-1.7 0-3.2-0.6-4.5-1.9-0.9-0.8-1.5-1.8-1.9-3s-0.4-2.4 0-3.7 1.3-2.7 2.7-4.2c1.7-1.8 3.5-2.9 5.2-3.1s3.6 0.5 5.5 2l-3.7 4.5c-0.9-0.6-1.7-0.9-2.4-0.9s-1.3 0.4-1.9 1c-0.5 0.5-0.7 1-0.7 1.5s0.2 0.9 0.6 1.3c0.3 0.3 0.6 0.4 1 0.4s1.1-0.3 2-0.9c2.3-1.5 4.2-2.4 5.5-2.7 1.3-0.4 2.5-0.4 3.6 0s2.1 0.9 3.1 1.8c1.1 1 1.9 2.3 2.3 3.6 0.4 1.4 0.5 2.8 0.1 4.1-0.4 1.4-1.2 2.8-2.6 4.2-2.3 2.5-4.5 3.6-6.5 3.5s-3.9-0.9-5.7-2.4z" fill="#C9A554"/>
					<path d="m437.2 549.1l-4.3 5.5 2.5 3.2-3.9 4.9-13.9-20.5 4.1-5.3 23.2 8.8-4 5-3.7-1.6zm-4.8-2.1l-8-3.5 5.3 7 2.7-3.5z" fill="#C9A554"/>
					<path d="m427.3 529.4l3.4-5.1 14.9 9.8 5.3-8 4.9 3.2-8.7 13.1-19.8-13z" fill="#C9A554"/>
					<path d="m435.8 516.7l3.1-5.6 17 4.4-12.7-12.1 3-5.4 17 18-3.2 5.8-24.2-5.1z" fill="#C9A554"/>
					<path d="m469.5 494.6l-2.9 6.3 3.1 2.5-2.6 5.7-18.3-16.7 2.8-6.1 24.6 3.2-2.7 5.8-4-0.7zm-5.1-1l-8.6-1.6 6.8 5.5 1.8-3.9z" fill="#C9A554"/>
					<path d="m455.5 477.6l3.2-8.5c0.6-1.7 1.4-2.9 2.3-3.8s2-1.4 3.3-1.7 2.6-0.3 4.1-0.1 2.9 0.6 4.5 1.1c2.4 0.9 4.1 1.8 5.3 2.7 1.1 0.9 2 2 2.6 3.1s0.8 2.2 0.8 3.2c-0.1 1.4-0.3 2.6-0.7 3.7l-3.2 8.5-22.2-8.2zm7.2-3.9l12.1 4.5 0.5-1.4c0.4-1.2 0.6-2.1 0.5-2.7s-0.5-1.2-1.2-1.8-1.9-1.2-3.7-1.9c-2.3-0.9-4.1-1.2-5.2-0.8-1.1 0.3-1.9 1.2-2.5 2.7l-0.5 1.4z" fill="#C9A554"/>
					<path d="m474.1 461.3c-3.7-1.1-6.3-2.8-7.9-5.1s-1.9-5-1-8.1c0.9-3.2 2.6-5.3 5.2-6.5 2.5-1.1 5.6-1.2 9.3-0.1 2.7 0.8 4.7 1.8 6.2 3s2.5 2.7 3 4.4 0.5 3.6-0.1 5.7c-0.6 2.2-1.5 3.8-2.8 5-1.2 1.2-2.8 1.9-4.9 2.3-2 0.4-4.4 0.2-7-0.6zm1.7-5.9c2.3 0.7 4 0.8 5.2 0.4s2-1.3 2.3-2.5c0.4-1.3 0.2-2.4-0.6-3.4s-2.4-1.8-5-2.6c-2.1-0.6-3.8-0.7-5-0.3s-2 1.3-2.3 2.5-0.1 2.3 0.7 3.3c0.8 1.1 2.4 1.9 4.7 2.6z" fill="#C9A554"/>
					<path d="m492.3 439.7l-23.1-4.9 2.1-10c0.4-1.9 0.9-3.2 1.5-4.1s1.5-1.5 2.6-1.9c1.2-0.4 2.5-0.4 3.9-0.1 1.3 0.3 2.3 0.7 3.2 1.4 0.8 0.7 1.5 1.4 1.9 2.4 0.3 0.6 0.4 1.4 0.5 2.3 0.4-0.7 0.8-1.1 1.2-1.4 0.2-0.2 0.7-0.4 1.4-0.7s1.2-0.5 1.6-0.5l7.3-1.5-1.4 6.8-7.7 1.7c-1 0.2-1.7 0.4-2 0.7-0.4 0.4-0.7 0.8-0.8 1.4l-0.1 0.5 9.4 2-1.5 5.9zm-12.4-8.9l0.5-2.5c0.1-0.3 0.1-0.8 0-1.7 0-0.4-0.2-0.8-0.5-1.1s-0.8-0.6-1.3-0.7c-0.7-0.2-1.4-0.1-1.8 0.2-0.5 0.3-0.8 1-1.1 2.1l-0.6 2.6 4.8 1.1z" fill="#C9A554"/>
			<g fill="#C9A554">
				<path d="m138.4 368.3v-89.3h13.4v89.3h-13.4z"/>
				<path d="m179.4 368.3v-74.2h-19.6v-15.1h52.5v15.1h-19.6v74.2h-13.3z"/>
				<path d="m263.2 335.5l12.9 5.5c-2 9.7-5.3 17-9.9 21.7s-10.5 7.1-17.6 7.1c-8.8 0-16-4-21.7-12.2-5.7-8.1-8.5-19.2-8.5-33.2 0-14.9 2.8-26.4 8.5-34.6s13.2-12.3 22.4-12.3c8.1 0 14.7 3.2 19.7 9.7 3 3.8 5.3 9.3 6.8 16.4l-13.2 4.3c-0.8-4.6-2.4-8.3-4.9-11s-5.5-4-9-4c-4.9 0-8.9 2.4-11.9 7.1-3.1 4.8-4.6 12.4-4.6 23.1 0 11.3 1.5 19.3 4.5 24.1s6.9 7.2 11.7 7.2c3.5 0 6.6-1.5 9.2-4.6 2.7-3 4.5-7.8 5.6-14.3z"/>
				<path d="M287.7,368.3v-89.3H301v35.1h26.2v-35.1h13.4v89.3h-13.4v-39H301v39H287.7z"/>
				<path d="m414 368.3h-14.5l-5.8-20.3h-26.4l-5.5 20.3h-14.2l25.8-89.3h14.1l26.5 89.3zm-24.6-35.3l-9.1-33.1-8.9 33.1h18z"/>
			</g>
			<g fill="#DDBC26">
				<path d="m135.4 366.3v-89.3h13.4v89.3h-13.4z"/>
				<path d="m176.4 366.3v-74.2h-19.6v-15.1h52.5v15.1h-19.6v74.2h-13.3z"/>
				<path d="m260.2 333.5l12.9 5.5c-2 9.7-5.3 17-9.9 21.7s-10.5 7.1-17.6 7.1c-8.8 0-16-4-21.7-12.2-5.7-8.1-8.5-19.2-8.5-33.2 0-14.9 2.8-26.4 8.5-34.6s13.2-12.3 22.4-12.3c8.1 0 14.7 3.2 19.7 9.7 3 3.8 5.3 9.3 6.8 16.4l-13.2 4.3c-0.8-4.6-2.4-8.3-4.9-11s-5.5-4-9-4c-4.9 0-8.9 2.4-11.9 7.1-3.1 4.8-4.6 12.4-4.6 23.1 0 11.3 1.5 19.3 4.5 24.1s6.9 7.2 11.7 7.2c3.5 0 6.6-1.5 9.2-4.6 2.7-3 4.5-7.8 5.6-14.3z"/>
				<path d="M284.7,366.3v-89.3H298v35.1h26.2v-35.1h13.4v89.3h-13.4v-39H298v39H284.7z"/>
				<path d="m411 366.3h-14.5l-5.8-20.3h-26.4l-5.5 20.3h-14.2l25.8-89.3h14.1l26.5 89.3zm-24.6-35.3l-9.1-33.1-8.9 33.1h18z"/>
			</g>
			<path d="m271.9 73.8c112.1 0 203 116.5 203 270.2s-90.9 278.2-203 278.2-203-124.5-203-278.2 90.9-270.2 203-270.2z" fill="none"/>
			<path d="m45.3 351.2l-0.1-7.1 23.6-0.3 0.1 7.1-23.6 0.3z" fill="#C9A554"/>
			<path d="m45.2 339.5l0.3-6.6 13.4-8.2-13.1-0.5 0.3-6.7 23.6 0.9-0.3 6.7-13.4 8.1 13 0.5-0.3 6.7-23.5-0.9z" fill="#C9A554"/>
			<path d="m61.9 316l0.2-6.8c1.1 0 2-0.2 2.7-0.6 1-0.6 1.6-1.6 1.7-3 0.1-1-0.1-1.8-0.5-2.4s-1-0.9-1.6-1-1.2 0.1-1.7 0.6-1.1 1.6-1.7 3.5c-1 3-2.2 5.2-3.5 6.4s-2.9 1.7-4.7 1.5c-1.2-0.1-2.3-0.6-3.3-1.4s-1.7-1.9-2.2-3.3-0.6-3.3-0.4-5.7c0.3-2.9 1.1-5.1 2.3-6.5 1.3-1.4 3.1-2.2 5.6-2.2l-0.3 6.7c-1.1 0.1-1.9 0.4-2.4 0.9s-0.9 1.3-1 2.3c-0.1 0.8 0 1.5 0.4 1.9 0.3 0.5 0.7 0.7 1.2 0.8 0.4 0 0.7-0.1 1.1-0.4 0.3-0.3 0.7-1.1 1.1-2.3 1-3 1.9-5.2 2.7-6.4 0.8-1.3 1.8-2.2 2.9-2.7s2.3-0.7 3.6-0.6c1.5 0.2 2.9 0.7 4 1.6 1.2 0.9 2 2.2 2.6 3.7 0.5 1.5 0.7 3.4 0.4 5.6-0.4 3.9-1.4 6.5-3.1 7.9-1.6 1.3-3.7 2-6.1 1.9z" fill="#C9A554"/>
			<path d="m48.5 292.2l3.4-21.4 5.8 0.9-1.1 7.2 17.6 2.8-1.1 7-17.7-2.7-1.1 7.2-5.8-1z" fill="#C9A554"/>
			<path d="m52.5 268.1l1.5-7 23.1 4.8-1.5 7-23.1-4.8z" fill="#C9A554"/>
			<path d="m54.5 258.4l5.4-20.9 5.6 1.5-1.8 7 17.2 4.4-1.8 6.9-17.2-4.4-1.8 7-5.6-1.5z" fill="#C9A554"/>
			<path d="m65.5 220.4l2.3-6.7 13.3 4.5c1.3 0.4 2.5 1.1 3.5 1.9s1.9 1.8 2.4 2.9 0.9 2.3 0.9 3.3c0.1 1.5-0.2 3.1-0.8 5-0.4 1.1-0.8 2.2-1.4 3.4s-1.2 2.2-2 2.8-1.6 1.2-2.7 1.7-2.1 0.6-3.1 0.6c-1.6-0.1-2.9-0.3-4-0.6l-13.3-4.5 2.3-6.7 13.7 4.6c1.2 0.4 2.3 0.4 3.2 0s1.6-1.2 2-2.4 0.4-2.2-0.1-3.1-1.3-1.5-2.5-2l-13.7-4.7z" fill="#C9A554"/>
			<path d="m68.7 210.9l8.4-19.9 5.4 2.3-2.8 6.7 16.4 6.9-2.8 6.6-16.4-6.9-2.8 6.7-5.4-2.4z" fill="#C9A554"/>
			<path d="m88 195.4c-3.4-1.8-5.6-4.1-6.6-6.9s-0.6-5.9 1.1-9.3c1.8-3.4 4-5.6 6.9-6.4 2.8-0.9 5.9-0.5 9.3 1.3 2.5 1.3 4.3 2.7 5.4 4.3 1.2 1.6 1.8 3.4 1.9 5.4s-0.4 4.1-1.6 6.4-2.5 4-4.1 5.2c-1.5 1.1-3.4 1.7-5.5 1.8-2 0.1-4.3-0.5-6.8-1.8zm3.3-6.3c2.1 1.1 3.8 1.5 5.2 1.2 1.3-0.3 2.3-1.1 3-2.4 0.7-1.4 0.8-2.6 0.3-3.9s-2-2.4-4.3-3.6c-2-1-3.6-1.4-4.9-1.1s-2.3 1.1-3 2.5c-0.7 1.3-0.7 2.5-0.2 3.8 0.4 1.2 1.8 2.4 3.9 3.5z" fill="#C9A554"/>
			<path d="m94.6 158.4l12.1-17.9 4.8 3.3-4.1 6 14.7 10-4 5.9-14.7-10-4.1 6-4.7-3.3z" fill="#C9A554"/>
			<path d="m108.6 138l12-14.8 3.9 3.2-7.5 9.3 2.9 2.4 7-8.6 3.7 3-7 8.6 3.6 2.9 7.7-9.6 4.2 3.4-12.1 15-18.4-14.8z" fill="#C9A554"/>
			<path d="m144.2 118.7l5.8-3.1c1 1.6 1.6 3.1 1.8 4.6s0.1 2.9-0.4 4.3-1.5 2.8-2.9 4.3c-1.8 1.8-3.5 3-5.1 3.6s-3.5 0.7-5.7 0.2c-2.1-0.5-4.3-1.8-6.4-3.8-2.8-2.7-4.2-5.6-4.3-8.5s1.2-5.7 3.8-8.3c2-2.1 4.1-3.3 6.1-3.6s4.2 0.1 6.5 1.2l-3.4 5.5c-0.7-0.3-1.2-0.6-1.6-0.6-0.7-0.1-1.3-0.1-1.9 0.1s-1.2 0.6-1.7 1.1c-1.1 1.1-1.5 2.5-1.2 4 0.2 1.2 1.1 2.5 2.6 4 1.9 1.8 3.4 2.8 4.7 2.9 1.2 0.1 2.3-0.3 3.3-1.3s1.4-2 1.3-3c0-1.2-0.4-2.3-1.3-3.6z" fill="#C9A554"/>
			<path d="m141.6 101.8l5.2-4.2 15 4.7-8.2-10.2 5.2-4.2 14.9 18.4-5.2 4.2-14.9-4.7 8.2 10.1-5.2 4.2-15-18.3z" fill="#C9A554"/>
			<path d="m168.7 95.2c-2-3.3-2.7-6.4-2-9.3s2.6-5.4 5.8-7.3c3.3-2 6.3-2.7 9.2-1.9 2.9 0.7 5.3 2.7 7.3 5.9 1.4 2.4 2.2 4.5 2.4 6.5s-0.2 3.8-1.2 5.6c-0.9 1.7-2.5 3.3-4.7 4.6-2.2 1.4-4.3 2.1-6.2 2.3s-3.8-0.3-5.6-1.3c-1.9-1-3.6-2.7-5-5.1zm6.1-3.7c1.3 2 2.5 3.3 3.8 3.7s2.6 0.3 3.8-0.5c1.3-0.8 2-1.9 2.2-3.2s-0.4-3.1-1.8-5.3c-1.2-1.9-2.4-3-3.7-3.5-1.3-0.4-2.6-0.2-3.8 0.6s-1.9 1.8-2.1 3.1c-0.2 1.4 0.3 3.1 1.6 5.1z" fill="#C9A554"/>
			<path d="m186.9 70.7l6.5-3 7.4 16.2 10.1-4.6 2.4 5.3-16.6 7.6-9.8-21.5z" fill="#C9A554"/>
			<path d="m209.9 73.2c-1.1-3.7-1-6.9 0.4-9.5 1.4-2.7 3.8-4.6 7.4-5.6 3.7-1.1 6.8-1 9.4 0.4s4.5 3.9 5.6 7.6c0.8 2.6 1 4.9 0.7 6.9s-1.2 3.7-2.5 5.1-3.2 2.5-5.7 3.3-4.7 1-6.5 0.7c-1.9-0.3-3.6-1.2-5.1-2.6-1.8-1.7-2.9-3.7-3.7-6.3zm5.9-20.8l5.3-1.6-3.4 6.1-2.9 0.9 1-5.4zm0.9 18.7c0.7 2.3 1.6 3.8 2.7 4.5s2.4 0.9 3.8 0.5c1.5-0.4 2.4-1.3 2.9-2.5s0.4-3.1-0.4-5.6c-0.7-2.1-1.5-3.6-2.7-4.3-1.1-0.7-2.4-0.9-3.9-0.4-1.4 0.4-2.3 1.3-2.8 2.5-0.4 1.2-0.3 3 0.4 5.3z" fill="#C9A554"/>
			<path d="m247.8 67l-0.7-4.9 10.9-1.6 1.5 10c-1.9 1.8-3.6 3-5.1 3.8s-3.4 1.3-5.6 1.6c-2.7 0.4-5 0.3-6.8-0.4s-3.4-1.9-4.6-3.6-2-3.8-2.4-6.2c-0.4-2.6-0.2-4.8 0.6-6.9 0.7-2 2-3.7 3.9-5 1.4-1 3.5-1.7 6.1-2.1 2.5-0.4 4.4-0.4 5.8-0.1 1.3 0.3 2.5 0.9 3.4 1.7 1 0.9 1.8 2 2.4 3.5l-6.6 2.2c-0.4-0.8-1-1.4-1.7-1.8s-1.6-0.5-2.7-0.3c-1.5 0.2-2.7 1-3.4 2.2-0.8 1.2-1 3-0.6 5.4 0.4 2.5 1.1 4.3 2.2 5.2s2.5 1.3 4.1 1.1c0.8-0.1 1.5-0.3 2.2-0.7 0.7-0.3 1.4-0.9 2.3-1.6l-0.3-2.2-4.9 0.7z" fill="#C9A554"/>
			<path d="m261.4 50.5l7.1-0.3 0.9 23.6-7.1 0.3-0.9-23.6z" fill="#C9A554"/>
			<path d="m288.4 64.9l6.1 2.3c-0.5 1.8-1.3 3.2-2.3 4.4-1 1.1-2.2 2-3.5 2.5-1.4 0.5-3.1 0.7-5.1 0.6-2.5-0.2-4.5-0.7-6-1.5s-2.8-2.3-3.8-4.2-1.4-4.4-1.2-7.3c0.3-3.9 1.5-6.8 3.6-8.8s5.1-2.8 8.8-2.6c2.9 0.2 5.1 0.9 6.7 2.3 1.6 1.3 2.7 3.2 3.3 5.8l-6.4 1c-0.2-0.7-0.4-1.3-0.6-1.6-0.4-0.6-0.8-1-1.4-1.4s-1.2-0.5-1.9-0.6c-1.6-0.1-2.9 0.5-3.8 1.7-0.7 0.9-1.1 2.5-1.3 4.6-0.2 2.6 0.1 4.4 0.8 5.4s1.8 1.6 3.2 1.7 2.4-0.2 3.2-1c0.6-0.7 1.1-1.8 1.6-3.3z" fill="#C9A554"/>
			<path d="m296.7 63.4c0.8-3.8 2.5-6.5 5-8.1 2.5-1.7 5.6-2.1 9.2-1.3 3.7 0.8 6.4 2.5 8 5s2 5.6 1.2 9.3c-0.6 2.7-1.5 4.8-2.8 6.3s-2.8 2.6-4.7 3.2-4.1 0.6-6.6 0.1c-2.5-0.6-4.5-1.4-6-2.6s-2.5-2.8-3.2-4.8-0.7-4.4-0.1-7.1zm6.9 1.6c-0.5 2.3-0.4 4.1 0.2 5.3s1.7 2 3.1 2.3c1.5 0.3 2.8 0.1 3.8-0.7s1.8-2.5 2.4-5.1c0.5-2.2 0.4-3.9-0.2-5-0.6-1.2-1.7-1.9-3.1-2.3-1.4-0.3-2.6 0-3.7 0.8-1.2 0.7-2 2.3-2.5 4.7z" fill="#C9A554"/>
			<path d="m336.9 61.8l9.7 4.2c1.9 0.8 3.3 1.8 4.3 2.8 0.9 1 1.6 2.2 1.9 3.6 0.3 1.3 0.4 2.7 0.2 4.2s-0.7 2.9-1.3 4.4c-1 2.3-2 4-3.1 5-1.1 1.1-2.2 1.8-3.5 2.3s-2.5 0.6-3.7 0.4c-1.6-0.2-3-0.6-4.1-1.1l-9.7-4.2 9.3-21.6zm4.4 7.8l-5.2 11.8 1.6 0.7c1.4 0.6 2.4 0.9 3.1 0.8s1.4-0.4 2.1-1 1.4-1.8 2.1-3.5c1-2.3 1.3-4 1-5.2-0.4-1.2-1.4-2.1-3.1-2.9l-1.6-0.7z" fill="#C9A554"/>
			<path d="m360.2 72.4l16.4 9.7-2.6 4.3-10.3-6.1-1.9 3.2 9.5 5.6-2.5 4.1-9.5-5.7-2.4 4 10.6 6.3-2.7 4.6-16.7-9.9 12.1-20.1z" fill="#C9A554"/>
			<path d="m391.4 111.2l3.5 5.5c-1.5 1.1-2.9 1.8-4.4 2.2-1.5 0.3-2.9 0.3-4.3-0.1s-2.9-1.2-4.5-2.6c-1.9-1.6-3.2-3.2-4-4.8-0.7-1.6-0.9-3.5-0.6-5.7s1.4-4.4 3.3-6.6c2.5-3 5.2-4.7 8.1-5s5.8 0.7 8.6 3.1c2.2 1.9 3.6 3.8 4.1 5.8s0.3 4.2-0.7 6.6l-5.7-2.9c0.3-0.7 0.5-1.2 0.5-1.7 0.1-0.7 0-1.3-0.3-1.9-0.2-0.6-0.6-1.1-1.2-1.6-1.2-1-2.6-1.3-4.1-0.8-1.1 0.3-2.4 1.3-3.7 2.9-1.7 2-2.5 3.6-2.6 4.9 0 1.2 0.5 2.3 1.6 3.2 1 0.9 2.1 1.2 3.1 1.1s2.1-0.6 3.3-1.6z" fill="#C9A554"/>
			<path d="m408 107.3l4.9 5.1-6 5.7 5.4 5.6 6-5.7 4.9 5.2-17.1 16.3-4.9-5.2 6.9-6.6-5.4-5.6-6.9 6.6-4.9-5.1 17.1-16.3z" fill="#C9A554"/>
			<path d="m419.6 150.3l-4.9-6.4-3.8 1.5-4.4-5.7 24-7.6 4.8 6.1-13.4 21.3-4.6-5.9 2.3-3.3zm3.1-4.3l5.2-7.2-8.3 3.2 3.1 4z" fill="#C9A554"/>
			<path d="m441.6 147l3.9 6-15 9.7 6 9.3-4.9 3.2-9.9-15.3 19.9-12.9z" fill="#C9A554"/>
			<path d="m442.4 186.8l-3.8-7.1-4 0.9-3.4-6.4 24.9-3.6 3.7 6.8-16.7 18.8-3.5-6.6 2.8-2.8zm3.8-3.7l6.3-6.3-8.7 1.8 2.4 4.5z" fill="#C9A554"/>
			<path d="m463 183.4l8.9 19.7-5.3 2.4-3-6.6-16.2 7.3-2.9-6.5 16.2-7.3-3-6.6 5.3-2.4z" fill="#C9A554"/>
			<path d="m473 205.9l6.6 17.9-4.7 1.7-4.1-11.2-3.5 1.3 3.7 10.4-4.5 1.7-3.8-10.4-4.4 1.6 4.3 11.5-5 1.9-6.7-18.2 22.1-8.2z" fill="#C9A554"/>
			<path d="m480.9 227.6l1.8 6.4-10.2 12 12.6-3.6 1.9 6.4-22.7 6.5-1.9-6.4 10.1-11.9-12.5 3.6-1.9-6.4 22.8-6.6z" fill="#C9A554"/>
			<path d="m471.6 270.7l-1.7-7.9-4-0.3-1.5-7.1 24.9 3.5 1.6 7.6-21.3 13.4-1.6-7.3 3.6-1.9zm4.7-2.5l7.8-4.3-8.8-0.7 1 5z" fill="#C9A554"/>
			<path d="m493 277l0.9 6.6-11.7 10.4 12.9-1.8 0.9 6.6-23.4 3.3-0.9-6.6 11.6-10.4-12.8 1.8-0.9-6.6 23.4-3.3z" fill="#C9A554"/>
			<path d="m482.4 315.9l4.9-0.4 0.8 11-10 0.7c-1.6-2-2.8-3.8-3.4-5.3s-1.1-3.5-1.2-5.7c-0.2-2.7 0.1-5 0.9-6.8s2.1-3.2 4-4.3 3.9-1.7 6.4-1.9c2.6-0.2 4.8 0.2 6.8 1.1s3.5 2.3 4.7 4.2c0.9 1.5 1.4 3.6 1.6 6.2 0.2 2.5 0.1 4.5-0.3 5.7-0.4 1.3-1 2.4-2 3.3-0.9 0.9-2.1 1.6-3.6 2.1l-1.8-6.8c0.9-0.3 1.5-0.9 1.9-1.6s0.6-1.6 0.5-2.6c-0.1-1.6-0.8-2.8-1.9-3.6-1.2-0.8-3-1.2-5.4-1-2.5 0.2-4.3 0.8-5.4 1.8-1 1-1.5 2.4-1.4 4 0.1 0.8 0.2 1.5 0.5 2.2s0.8 1.5 1.4 2.4l2.2-0.2-0.2-4.5z" fill="#C9A554"/>
			<path d="m486.5 328.8c3.9 0 6.9 1 9 3 2.2 2.1 3.3 5 3.3 8.7 0 3.8-1 6.8-3.1 8.9s-5 3.2-8.8 3.2c-2.8 0-5-0.4-6.8-1.3s-3.2-2.2-4.2-3.9-1.5-3.8-1.5-6.4 0.4-4.8 1.2-6.5 2.2-3.1 4-4.2c1.8-1 4.1-1.5 6.9-1.5zm0 7.1c-2.4 0-4.1 0.5-5.1 1.4s-1.5 2.1-1.5 3.5c0 1.5 0.5 2.7 1.6 3.5 1 0.8 2.9 1.2 5.5 1.2 2.2 0 3.8-0.5 4.9-1.4s1.5-2.1 1.5-3.6c0-1.4-0.6-2.6-1.6-3.4-1.1-0.8-2.9-1.3-5.3-1.2z" fill="#C9A554"/>
			<path d="m271.8 72.2c112.1 0 203 116.5 203 270.2s-90.9 278.2-203 278.2-203-124.5-203-278.2 91-270.2 203-270.2z" fill="none"/>
			<path d="m45.3 349.5l-0.1-7.1 23.6-0.3 0.1 7.1-23.6 0.3z" fill="#DDBC26"/>
			<path d="m45.1 337.9l0.3-6.6 13.4-8.2-13.1-0.5 0.3-6.7 23.6 0.9-0.3 6.7-13.3 8.1 13 0.5-0.3 6.7-23.6-0.9z" fill="#DDBC26"/>
			<path d="m61.9 314.4l0.2-6.8c1.1 0 2-0.2 2.7-0.6 1-0.6 1.6-1.6 1.7-3 0.1-1-0.1-1.8-0.5-2.4s-1-0.9-1.6-1-1.2 0.1-1.7 0.6-1.1 1.6-1.7 3.5c-1 3-2.2 5.2-3.5 6.4s-2.9 1.7-4.7 1.5c-1.2-0.1-2.3-0.6-3.3-1.4s-1.7-1.9-2.2-3.3-0.6-3.3-0.4-5.7c0.3-2.9 1.1-5.1 2.3-6.5 1.3-1.4 3.1-2.2 5.6-2.2l-0.3 6.7c-1.1 0.1-1.9 0.4-2.4 0.9s-0.9 1.3-1 2.3c-0.1 0.8 0 1.5 0.4 1.9 0.3 0.5 0.7 0.7 1.2 0.8 0.4 0 0.7-0.1 1.1-0.4 0.3-0.3 0.7-1.1 1.1-2.3 1-3 1.9-5.2 2.7-6.4 0.8-1.3 1.8-2.2 2.9-2.7s2.3-0.7 3.6-0.6c1.5 0.2 2.9 0.7 4 1.6 1.2 0.9 2 2.2 2.6 3.7 0.5 1.5 0.7 3.4 0.4 5.6-0.4 3.9-1.4 6.5-3.1 7.9-1.6 1.3-3.7 2-6.1 1.9z" fill="#DDBC26"/>
			<path d="m48.4 290.6l3.4-21.4 5.8 0.9-1.1 7.2 17.6 2.8-1.1 7-17.6-2.8-1.1 7.2-5.9-0.9z" fill="#DDBC26"/>
			<path d="m52.5 266.5l1.5-7 23.1 4.8-1.5 7-23.1-4.8z" fill="#DDBC26"/>
			<path d="m54.4 256.7l5.4-20.9 5.6 1.5-1.8 7 17.2 4.4-1.8 6.9-17.2-4.4-1.8 7-5.6-1.5z" fill="#DDBC26"/>
			<path d="m65.4 218.8l2.3-6.7 13.3 4.5c1.3 0.4 2.5 1.1 3.5 1.9s1.9 1.8 2.4 2.9 0.9 2.3 0.9 3.3c0.1 1.5-0.2 3.1-0.8 5-0.4 1.1-0.8 2.2-1.4 3.4s-1.2 2.2-2 2.8-1.6 1.2-2.7 1.7-2.1 0.6-3.1 0.6c-1.6-0.1-2.9-0.3-4-0.6l-13.3-4.5 2.3-6.7 13.7 4.6c1.2 0.4 2.3 0.4 3.2 0s1.6-1.2 2-2.4 0.4-2.2-0.1-3.1-1.3-1.5-2.5-2l-13.7-4.7z" fill="#DDBC26"/>
			<path d="m68.7 209.3l8.4-19.9 5.4 2.3-2.8 6.7 16.4 6.9-2.8 6.6-16.4-6.9-2.8 6.7-5.4-2.4z" fill="#DDBC26"/>
			<path d="m88 193.8c-3.4-1.8-5.6-4.1-6.6-6.9s-0.6-5.9 1.1-9.3c1.8-3.4 4-5.6 6.9-6.4 2.8-0.9 5.9-0.5 9.3 1.3 2.5 1.3 4.3 2.7 5.4 4.3 1.2 1.6 1.8 3.4 1.9 5.4s-0.4 4.1-1.6 6.4-2.5 4-4.1 5.2c-1.5 1.1-3.4 1.7-5.5 1.8-2 0-4.3-0.5-6.8-1.8zm3.3-6.3c2.1 1.1 3.8 1.5 5.2 1.2 1.3-0.3 2.3-1.1 3-2.4 0.7-1.4 0.8-2.6 0.3-3.9s-2-2.4-4.3-3.6c-2-1-3.6-1.4-4.9-1.1s-2.3 1.1-3 2.5c-0.7 1.3-0.7 2.5-0.2 3.8 0.4 1.2 1.8 2.4 3.9 3.5z" fill="#DDBC26"/>
			<path d="m94.6 156.8l12.1-17.9 4.8 3.3-4.1 6 14.7 10-4 5.9-14.7-10-4.1 6-4.7-3.3z" fill="#DDBC26"/>
			<path d="m108.6 136.3l12-14.8 3.9 3.2-7.5 9.3 2.9 2.4 7-8.6 3.7 3-7 8.6 3.6 2.9 7.7-9.6 4.2 3.4-12.1 15.1-18.4-14.9z" fill="#DDBC26"/>
			<path d="m144.2 117.1l5.8-3.1c1 1.6 1.6 3.1 1.8 4.6s0.1 2.9-0.4 4.3-1.5 2.8-2.9 4.3c-1.8 1.8-3.5 3-5.1 3.6s-3.5 0.7-5.7 0.2c-2.1-0.5-4.3-1.8-6.4-3.8-2.8-2.7-4.2-5.6-4.3-8.5s1.2-5.7 3.8-8.3c2-2.1 4.1-3.3 6.1-3.6s4.2 0.1 6.5 1.2l-3.4 5.5c-0.7-0.3-1.2-0.6-1.6-0.6-0.7-0.1-1.3-0.1-1.9 0.1s-1.2 0.6-1.7 1.1c-1.1 1.1-1.5 2.5-1.2 4 0.2 1.2 1.1 2.5 2.6 4 1.9 1.8 3.4 2.8 4.7 2.9 1.2 0.1 2.3-0.3 3.3-1.3s1.4-2 1.3-3c0-1.2-0.5-2.4-1.3-3.6z" fill="#DDBC26"/>
			<path d="m141.6 100.1l5.2-4.2 15 4.7-8.2-10.2 5.2-4.2 14.9 18.4-5.2 4.2-14.9-4.7 8.2 10.1-5.2 4.2-15-18.3z" fill="#DDBC26"/>
			<path d="m168.7 93.6c-2-3.3-2.7-6.4-2-9.3s2.6-5.4 5.8-7.3c3.3-2 6.3-2.7 9.2-1.9 2.9 0.7 5.3 2.7 7.3 5.9 1.4 2.4 2.2 4.5 2.4 6.5s-0.2 3.8-1.2 5.6c-0.9 1.7-2.5 3.3-4.7 4.6-2.2 1.4-4.3 2.1-6.2 2.3s-3.8-0.3-5.6-1.3c-1.9-1.1-3.6-2.7-5-5.1zm6-3.7c1.3 2 2.5 3.3 3.8 3.7s2.6 0.3 3.8-0.5c1.3-0.8 2-1.9 2.2-3.2s-0.4-3.1-1.8-5.3c-1.2-1.9-2.4-3-3.7-3.5-1.3-0.4-2.6-0.2-3.8 0.6s-1.9 1.8-2.1 3.1c-0.2 1.4 0.4 3.1 1.6 5.1z" fill="#DDBC26"/>
			<path d="m186.9 69.1l6.5-3 7.4 16.2 10.1-4.6 2.4 5.3-16.6 7.6-9.8-21.5z" fill="#DDBC26"/>
			<path d="m209.8 71.5c-1.1-3.7-1-6.9 0.4-9.5 1.4-2.7 3.8-4.6 7.4-5.6 3.7-1.1 6.8-1 9.4 0.4s4.5 3.9 5.6 7.6c0.8 2.6 1 4.9 0.7 6.9s-1.2 3.7-2.5 5.1-3.2 2.5-5.7 3.3-4.7 1-6.5 0.7c-1.9-0.3-3.6-1.2-5.1-2.6-1.7-1.6-2.9-3.6-3.7-6.3zm6-20.7l5.3-1.6-3.4 6.1-2.9 0.9 1-5.4zm0.8 18.7c0.7 2.3 1.6 3.8 2.7 4.5s2.4 0.9 3.8 0.5c1.5-0.4 2.4-1.3 2.9-2.5s0.4-3.1-0.4-5.6c-0.7-2.1-1.5-3.6-2.7-4.3-1.1-0.7-2.4-0.9-3.9-0.4-1.4 0.4-2.3 1.3-2.8 2.5-0.4 1.2-0.3 3 0.4 5.3z" fill="#DDBC26"/>
			<path d="m247.8 65.4l-0.7-4.9 10.9-1.6 1.5 10c-1.9 1.8-3.6 3-5.1 3.8s-3.4 1.3-5.6 1.6c-2.7 0.4-5 0.3-6.8-0.4s-3.4-1.9-4.6-3.6-2-3.8-2.4-6.2c-0.4-2.6-0.2-4.8 0.6-6.9 0.7-2 2-3.7 3.9-5 1.4-1 3.5-1.7 6.1-2.1 2.5-0.4 4.4-0.4 5.8-0.1 1.3 0.3 2.5 0.9 3.4 1.7 1 0.9 1.8 2 2.4 3.5l-6.6 2.2c-0.4-0.8-1-1.4-1.7-1.8s-1.6-0.5-2.7-0.3c-1.5 0.2-2.7 1-3.4 2.2-0.8 1.2-1 3-0.6 5.4 0.4 2.5 1.1 4.3 2.2 5.2s2.5 1.3 4.1 1.1c0.8-0.1 1.5-0.3 2.2-0.7 0.7-0.3 1.4-0.9 2.3-1.6l-0.3-2.2-4.9 0.7z" fill="#DDBC26"/>
			<path d="m261.4 48.9l7.1-0.3 0.9 23.6-7.1 0.3-0.9-23.6z" fill="#DDBC26"/>
			<path d="m288.3 63.3l6.1 2.3c-0.5 1.8-1.3 3.2-2.3 4.4-1 1.1-2.2 2-3.5 2.5-1.4 0.5-3.1 0.7-5.1 0.6-2.5-0.2-4.5-0.7-6-1.5s-2.8-2.3-3.8-4.2-1.4-4.4-1.2-7.3c0.3-3.9 1.5-6.8 3.6-8.8s5.1-2.8 8.8-2.6c2.9 0.2 5.1 0.9 6.7 2.3 1.6 1.3 2.7 3.2 3.3 5.8l-6.4 1c-0.2-0.7-0.4-1.3-0.6-1.6-0.4-0.6-0.8-1-1.4-1.4s-1.2-0.5-1.9-0.6c-1.6-0.1-2.9 0.5-3.8 1.7-0.7 0.9-1.1 2.5-1.3 4.6-0.2 2.6 0.1 4.4 0.8 5.4s1.8 1.6 3.2 1.7 2.4-0.2 3.2-1c0.7-0.7 1.2-1.9 1.6-3.3z" fill="#DDBC26"/>
			<path d="m296.7 61.8c0.8-3.8 2.5-6.5 5-8.1 2.5-1.7 5.6-2.1 9.2-1.3 3.7 0.8 6.4 2.5 8 5s2 5.6 1.2 9.3c-0.6 2.7-1.5 4.8-2.8 6.3s-2.8 2.6-4.7 3.2-4.1 0.6-6.6 0.1c-2.5-0.6-4.5-1.4-6-2.6s-2.5-2.8-3.2-4.8-0.7-4.4-0.1-7.1zm6.9 1.5c-0.5 2.3-0.4 4.1 0.2 5.3s1.7 2 3.1 2.3c1.5 0.3 2.8 0.1 3.8-0.7s1.8-2.5 2.4-5.1c0.5-2.2 0.4-3.9-0.2-5-0.6-1.2-1.7-1.9-3.1-2.3-1.4-0.3-2.6 0-3.7 0.8-1.2 0.8-2 2.4-2.5 4.7z" fill="#DDBC26"/>
			<path d="m336.9 60.2l9.7 4.2c1.9 0.8 3.3 1.8 4.3 2.8 0.9 1 1.6 2.2 1.9 3.6 0.3 1.3 0.4 2.7 0.2 4.2s-0.7 2.9-1.3 4.4c-1 2.3-2 4-3.1 5-1.1 1.1-2.2 1.8-3.5 2.3s-2.5 0.6-3.7 0.4c-1.6-0.2-3-0.6-4.1-1.1l-9.7-4.2 9.3-21.6zm4.4 7.7l-5.2 11.8 1.6 0.7c1.4 0.6 2.4 0.9 3.1 0.8s1.4-0.4 2.1-1 1.4-1.8 2.1-3.5c1-2.3 1.3-4 1-5.2-0.4-1.2-1.4-2.1-3.1-2.9l-1.6-0.7z" fill="#DDBC26"/>
			<path d="m360.2 70.8l16.4 9.7-2.6 4.3-10.3-6.1-1.9 3.2 9.5 5.6-2.5 4.1-9.5-5.7-2.4 4 10.6 6.3-2.7 4.6-16.7-9.9 12.1-20.1z" fill="#DDBC26"/>
			<path d="m391.4 109.6l3.5 5.5c-1.5 1.1-2.9 1.8-4.4 2.2-1.5 0.3-2.9 0.3-4.3-0.1s-2.9-1.2-4.5-2.6c-1.9-1.6-3.2-3.2-4-4.8-0.7-1.6-0.9-3.5-0.6-5.7s1.4-4.4 3.3-6.6c2.5-3 5.2-4.7 8.1-5s5.8 0.7 8.6 3.1c2.2 1.9 3.6 3.8 4.1 5.8s0.3 4.2-0.7 6.6l-5.7-2.9c0.3-0.7 0.5-1.2 0.5-1.7 0.1-0.7 0-1.3-0.3-1.9-0.2-0.6-0.6-1.1-1.2-1.6-1.2-1-2.6-1.3-4.1-0.8-1.1 0.3-2.4 1.3-3.7 2.9-1.7 2-2.5 3.6-2.6 4.9 0 1.2 0.5 2.3 1.6 3.2 1 0.9 2.1 1.2 3.1 1.1s2.1-0.7 3.3-1.6z" fill="#DDBC26"/>
			<path d="m408 105.6l4.9 5.1-6 5.7 5.4 5.6 6-5.7 4.9 5.2-17.1 16.3-4.9-5.2 6.9-6.6-5.4-5.6-6.9 6.6-4.9-5.1 17.1-16.3z" fill="#DDBC26"/>
			<path d="m419.6 148.7l-4.9-6.4-3.8 1.5-4.4-5.7 24-7.6 4.8 6.1-13.4 21.3-4.6-5.9 2.3-3.3zm3.1-4.3l5.2-7.2-8.3 3.2 3.1 4z" fill="#DDBC26"/>
			<path d="m441.6 145.4l3.9 6-15 9.7 6 9.3-4.9 3.2-9.9-15.3 19.9-12.9z" fill="#DDBC26"/>
			<path d="m442.4 185.2l-3.8-7.1-4 0.9-3.4-6.4 24.9-3.6 3.7 6.8-16.7 18.8-3.5-6.6 2.8-2.8zm3.8-3.7l6.3-6.3-8.7 1.8 2.4 4.5z" fill="#DDBC26"/>
			<path d="m463 181.8l8.9 19.7-5.3 2.4-3-6.6-16.2 7.3-2.9-6.5 16.2-7.3-3-6.6 5.3-2.4z" fill="#DDBC26"/>
			<path d="m473 204.3l6.6 17.9-4.7 1.7-4.1-11.2-3.5 1.3 3.8 10.4-4.5 1.7-3.8-10.4-4.4 1.6 4.3 11.5-5 1.9-6.7-18.2 22-8.2z" fill="#DDBC26"/>
			<path d="m480.8 226l1.8 6.4-10.2 12 12.6-3.6 1.9 6.4-22.7 6.5-1.9-6.4 10.1-11.9-12.5 3.6-1.9-6.4 22.8-6.6z" fill="#DDBC26"/>
			<path d="m471.6 269.1l-1.7-7.9-4-0.3-1.5-7.1 24.9 3.5 1.6 7.6-21.3 13.4-1.6-7.3 3.6-1.9zm4.7-2.5l7.8-4.3-8.8-0.7 1 5z" fill="#DDBC26"/>
			<path d="m493 275.4l0.9 6.6-11.7 10.4 12.9-1.8 0.9 6.6-23.4 3.3-0.9-6.6 11.6-10.4-12.8 1.8-0.9-6.6 23.4-3.3z" fill="#DDBC26"/>
			<path d="m482.4 314.2l4.9-0.4 0.8 11-10 0.7c-1.6-2-2.8-3.8-3.4-5.3s-1.1-3.5-1.2-5.7c-0.2-2.7 0.1-5 0.9-6.8s2.1-3.2 4-4.3 3.9-1.7 6.4-1.9c2.6-0.2 4.8 0.2 6.8 1.1s3.5 2.3 4.7 4.2c0.9 1.5 1.4 3.6 1.6 6.2 0.2 2.5 0.1 4.5-0.3 5.7-0.4 1.3-1 2.4-2 3.3-0.9 0.9-2.1 1.6-3.6 2.1l-1.8-6.8c0.9-0.3 1.5-0.9 1.9-1.6s0.6-1.6 0.5-2.6c-0.1-1.6-0.8-2.8-1.9-3.6-1.2-0.8-3-1.2-5.4-1-2.5 0.2-4.3 0.8-5.4 1.8-1 1-1.5 2.4-1.4 4 0.1 0.8 0.2 1.5 0.5 2.2s0.8 1.5 1.4 2.4l2.2-0.2-0.2-4.5z" fill="#DDBC26"/>
			<path d="m486.5 327.1c3.9 0 6.9 1 9 3 2.2 2.1 3.3 5 3.3 8.7 0 3.8-1 6.8-3.1 8.9s-5 3.2-8.8 3.2c-2.8 0-5-0.4-6.8-1.3s-3.2-2.2-4.2-3.9-1.5-3.8-1.5-6.4 0.4-4.8 1.2-6.5 2.2-3.1 4-4.2c1.8-0.9 4.1-1.4 6.9-1.5zm0 7.2c-2.4 0-4.1 0.5-5.1 1.4s-1.5 2.1-1.5 3.5c0 1.5 0.5 2.7 1.6 3.5 1 0.8 2.9 1.2 5.5 1.2 2.2 0 3.8-0.5 4.9-1.4s1.5-2.1 1.5-3.6c0-1.4-0.6-2.6-1.6-3.4-1.2-0.9-2.9-1.3-5.3-1.2z" fill="#DDBC26"/>
					<path d="m58.9 428.7l-1.6-6.8-4-0.1-1.4-6.1 24.7 1.9 1.5 6.5-21.3 12.6-1.5-6.3 3.6-1.7zm4.7-2.4l7.8-4.1-8.8-0.2 1 4.3z" fill="#DDBC26"/>
					<path d="m65 437.1l2.1 5.5c-1 0.4-1.8 0.9-2.3 1.5-0.7 0.9-0.9 1.9-0.6 3 0.3 0.8 0.7 1.4 1.3 1.7s1.2 0.4 1.8 0.2 1-0.5 1.4-1.1c0.3-0.6 0.5-1.7 0.4-3.4-0.1-2.8 0.3-4.9 1.1-6.3s2.1-2.4 3.9-3c1.2-0.3 2.3-0.4 3.6-0.1 1.2 0.3 2.3 0.9 3.2 1.8 0.9 1 1.7 2.4 2.3 4.4 0.7 2.4 0.7 4.4 0 6s-2.2 2.9-4.5 3.8l-2-5.4c1-0.5 1.6-1 1.9-1.6s0.4-1.3 0.1-2.2c-0.2-0.7-0.5-1.1-1-1.4-0.4-0.2-0.9-0.3-1.4-0.1-0.4 0.1-0.6 0.3-0.8 0.7s-0.3 1.1-0.2 2.2c0.1 2.8 0 4.8-0.4 6.1-0.3 1.3-0.9 2.4-1.8 3.2-0.8 0.8-1.9 1.4-3.1 1.8-1.5 0.4-2.9 0.5-4.3 0.2s-2.6-1-3.6-2-1.8-2.5-2.3-4.3c-1-3.2-0.9-5.7 0.2-7.4 1-1.7 2.7-3 5-3.8z" fill="#DDBC26"/>
					<path d="m74.9 456.3c3.6-1.3 6.7-1.5 9.4-0.6s4.5 2.9 5.6 5.9c1.1 3.1 1 5.8-0.3 8.3s-3.8 4.3-7.4 5.6c-2.6 1-4.8 1.4-6.8 1.3-1.9-0.1-3.6-0.7-5-1.7s-2.5-2.6-3.3-4.7-1-4-0.7-5.7 1.1-3.3 2.5-4.7 3.4-2.7 6-3.7zm2.1 5.8c-2.2 0.8-3.7 1.8-4.4 2.8-0.7 1.1-0.9 2.2-0.4 3.4s1.3 2 2.5 2.3 3.1 0 5.5-0.9c2.1-0.8 3.5-1.7 4.2-2.8s0.8-2.2 0.4-3.4-1.3-1.9-2.5-2.2c-1.3-0.3-3 0-5.3 0.8z" fill="#DDBC26"/>
					<path d="m87.3 492.5l0.5 5.7c-1.8 0.4-3.4 0.5-4.8 0.3s-2.6-0.7-3.7-1.5c-1-0.8-1.9-2-2.7-3.6-0.9-2-1.3-3.7-1.2-5.3s0.8-3.2 2.1-4.9 3.3-3.1 6-4.3c3.6-1.6 6.7-2.1 9.3-1.3s4.6 2.5 5.9 5.4c1 2.3 1.3 4.3 0.8 6.1s-1.7 3.5-3.7 5.2l-3.5-4.3c0.6-0.5 1-0.9 1.2-1.2 0.4-0.5 0.6-1.1 0.7-1.7s0-1.1-0.3-1.7c-0.6-1.3-1.6-2-3.1-2.1-1.1-0.1-2.7 0.3-4.6 1.2-2.4 1.1-3.9 2.1-4.5 3.1s-0.7 2.1-0.2 3.2 1.2 1.7 2.2 1.9c0.9 0.2 2.1 0.2 3.6-0.2z" fill="#DDBC26"/>
					<path d="m103.9 494.7l2.8 5.5-20.9 10.9-2.8-5.5 20.9-10.9z" fill="#DDBC26"/>
					<path d="m98.2 524.9l-3.6-6-3.8 1.2-3.2-5.4 24.1-5.7 3.4 5.7-16.5 18.5-3.3-5.5 2.9-2.8zm3.8-3.7l6.2-6.2-8.4 2.5 2.2 3.7z" fill="#DDBC26"/>
					<path d="m116.1 541.3l1.5 5.5c-1.7 0.7-3.2 1.1-4.7 1.2-1.4 0.1-2.7-0.2-3.9-0.8s-2.3-1.6-3.3-3.1c-1.2-1.8-2-3.4-2.1-5-0.2-1.5 0.2-3.3 1.2-5.2s2.6-3.7 5-5.4c3.2-2.3 6.1-3.3 8.9-3.1 2.7 0.2 5 1.6 6.9 4.2 1.4 2 2.1 4 1.9 5.9s-1.1 3.8-2.7 5.8l-4.3-3.6c0.5-0.6 0.8-1 0.9-1.4 0.3-0.6 0.4-1.2 0.3-1.8s-0.2-1.1-0.6-1.6c-0.8-1.1-2-1.6-3.5-1.5-1.1 0.1-2.6 0.8-4.3 2-2.1 1.5-3.4 2.8-3.8 3.9s-0.3 2.2 0.4 3.1c0.7 1 1.5 1.5 2.5 1.5 1.1 0.3 2.3 0 3.7-0.6z" fill="#DDBC26"/>
					<path d="m132.9 540.3l3.9 4.8-18.4 14.9-3.9-4.8 18.4-14.9z" fill="#DDBC26"/>
					<path d="m130.4 556.1c2.8-2.6 5.6-4 8.4-4.2 2.8-0.1 5.3 1 7.5 3.3 2.3 2.4 3.2 5 2.9 7.7s-1.9 5.4-4.7 8c-2 1.9-3.9 3.1-5.8 3.8-1.8 0.6-3.6 0.8-5.3 0.3-1.7-0.4-3.3-1.4-4.8-3s-2.5-3.3-2.9-4.9c-0.4-1.7-0.2-3.4 0.5-5.4 0.8-1.8 2.1-3.7 4.2-5.6zm4.1 4.5c-1.7 1.6-2.7 3.1-3 4.3-0.3 1.3 0.1 2.4 0.9 3.3 0.9 1 2 1.4 3.2 1.2s2.8-1.2 4.8-3c1.6-1.5 2.6-2.9 2.8-4.2s-0.1-2.3-1-3.3c-0.8-0.9-1.9-1.3-3.2-1.1-1.2 0.3-2.7 1.2-4.5 2.8zm16-9.4l3.2 3.5-6.5 0.1-1.8-1.9 5.1-1.7z" fill="#DDBC26"/>
					<path d="m155.4 565.3l4.3 3.8-2.9 14.8 8.6-9.9 4.4 3.8-15.5 17.8-4.4-3.8 2.9-14.7-8.5 9.8-4.4-3.8 15.5-17.8z" fill="#DDBC26"/>
					<path d="m189.9 614.1l-6.1-3.3-2.7 3-5.5-3 17.8-17.2 5.9 3.2-4.7 24.3-5.6-3.1 0.9-3.9zm1.3-5.1l2.1-8.5-6 6.4 3.9 2.1z" fill="#DDBC26"/>
					<path d="m210.7 618.4l1.8-4.6 8.8 3.4-3.6 9.4c-2.2 0.7-4.1 1.1-5.6 1.1s-3.1-0.4-4.9-1.1c-2.2-0.9-3.8-2-4.9-3.4-1-1.4-1.6-3.2-1.7-5.2-0.1-2.1 0.3-4.2 1.2-6.5 0.9-2.4 2.2-4.3 3.7-5.8s3.3-2.3 5.2-2.6c1.5-0.2 3.4 0.1 5.5 0.9 2 0.8 3.5 1.6 4.3 2.4s1.4 1.8 1.7 3 0.4 2.6 0.1 4.1l-6-1c0.1-0.9 0-1.7-0.4-2.4s-1-1.1-1.8-1.5c-1.3-0.5-2.5-0.4-3.6 0.4-1.1 0.7-2.2 2.2-3 4.5-0.9 2.4-1.2 4.2-0.9 5.5s1.2 2.2 2.6 2.8c0.6 0.2 1.3 0.4 2 0.4s1.5-0.1 2.4-0.4l0.8-2.1-3.7-1.3z" fill="#DDBC26"/>
					<path d="m235.4 630.6l-6.8-1.6-1.8 3.6-6.1-1.4 12.7-21.3 6.5 1.5 1.9 24.7-6.3-1.5-0.1-4zm0-5.3l-0.2-8.8-4 7.8 4.2 1z" fill="#DDBC26"/>
					<path d="m248.7 613.2l10.1 1c2.2 0.2 3.8 1 4.8 2.4s1.4 3.2 1.1 5.5c-0.2 2.4-1 4.2-2.3 5.4s-3.2 1.7-5.7 1.5l-3.3-0.3-0.8 8.7-6.1-0.6 2.2-23.6zm5.2 10.6l1.5 0.1c1.2 0.1 2-0.1 2.5-0.5s0.8-1 0.9-1.8c0.1-0.7-0.1-1.4-0.4-1.9-0.4-0.6-1.1-0.9-2.3-1l-1.7-0.2-0.5 5.3z" fill="#DDBC26"/>
					<path d="m268.3 614.7l16.4-0.5 0.2 5-10.3 0.3 0.1 3.8 9.5-0.3 0.2 4.8-9.5 0.3 0.1 4.7 10.6-0.3 0.2 5.3-16.7 0.5-0.8-23.6z" fill="#DDBC26"/>
					<path d="m307 611l8.8-2.3c1.7-0.5 3.2-0.6 4.4-0.3s2.3 0.8 3.3 1.7 1.8 1.9 2.5 3.3c0.7 1.3 1.2 2.7 1.6 4.3 0.7 2.4 0.9 4.4 0.8 5.9s-0.5 2.8-1 3.9c-0.6 1.1-1.3 2-2.2 2.5-1.2 0.8-2.3 1.3-3.4 1.6l-8.8 2.3-6-22.9zm7.3 3.6l3.3 12.5 1.5-0.4c1.2-0.3 2.1-0.7 2.5-1.2s0.7-1.1 0.8-2-0.1-2.3-0.6-4.1c-0.6-2.4-1.4-4-2.3-4.7s-2.1-0.9-3.7-0.5l-1.5 0.4z" fill="#DDBC26"/>
					<path d="m327.5 605.2l15.3-6 1.9 4.7-9.6 3.8 1.4 3.5 8.9-3.5 1.8 4.5-8.9 3.5 1.7 4.3 9.8-3.9 2 5-15.6 6.1-8.7-22z" fill="#DDBC26"/>
					<path d="m362.8 588.7l13.7-9 2.8 4.2-8.6 5.7 2.1 3.1 8-5.3 2.7 4-8 5.3 2.6 3.9 8.8-5.8 2.9 4.5-14 9.2-13-19.8z" fill="#DDBC26"/>
					<path d="m379.3 577.5l4.8-3.8 11.2 13.9 7.5-6 3.6 4.5-12.2 9.8-14.9-18.4z" fill="#DDBC26"/>
					<path d="m411.4 570.8l3.7-4.5c0.9 0.7 1.7 1.1 2.4 1.2 1.1 0.2 2.1-0.1 2.9-1 0.6-0.6 0.9-1.3 0.9-2s-0.3-1.2-0.7-1.7c-0.4-0.4-1-0.6-1.7-0.6s-1.7 0.4-3.2 1.3c-2.4 1.5-4.4 2.2-6 2.2-1.7 0-3.2-0.6-4.5-1.9-0.9-0.8-1.5-1.8-1.9-3s-0.4-2.4 0-3.7 1.3-2.7 2.7-4.2c1.7-1.8 3.5-2.9 5.2-3.1s3.6 0.5 5.5 2l-3.7 4.5c-0.9-0.6-1.7-0.9-2.4-0.9s-1.3 0.4-1.9 1c-0.5 0.5-0.7 1-0.7 1.5s0.2 0.9 0.6 1.3c0.3 0.3 0.6 0.4 1 0.4s1.1-0.3 2-0.9c2.3-1.5 4.2-2.4 5.5-2.7 1.3-0.4 2.5-0.4 3.6 0 1.1 0.3 2.1 0.9 3.1 1.8 1.1 1 1.9 2.3 2.3 3.6 0.4 1.4 0.5 2.8 0.1 4.1-0.4 1.4-1.2 2.8-2.6 4.2-2.3 2.5-4.5 3.6-6.5 3.5-1.9 0-3.8-0.9-5.7-2.4z" fill="#DDBC26"/>
					<path d="m437.3 547.2l-4.3 5.5 2.5 3.2-3.9 4.9-13.9-20.5 4.1-5.3 23.2 8.8-4 5-3.7-1.6zm-4.8-2.2l-8-3.5 5.3 7 2.7-3.5z" fill="#DDBC26"/>
					<path d="m427.5 527.4l3.4-5.1 14.9 9.8 5.3-8 4.9 3.2-8.7 13.1-19.8-13z" fill="#DDBC26"/>
					<path d="m436 514.7l3.1-5.6 17 4.4-12.7-12.1 3-5.4 17 18-3.2 5.8-24.2-5.1z" fill="#DDBC26"/>
					<path d="m469.7 492.6l-2.9 6.3 3.1 2.5-2.6 5.7-18.3-16.7 2.8-6.1 24.6 3.2-2.7 5.8-4-0.7zm-5.2-1l-8.6-1.6 6.8 5.5 1.8-3.9z" fill="#DDBC26"/>
					<path d="m455.7 475.6l3.2-8.5c0.6-1.7 1.4-2.9 2.3-3.8 0.9-0.8 2-1.4 3.3-1.7s2.6-0.3 4.1-0.1 2.9 0.6 4.5 1.1c2.4 0.9 4.1 1.8 5.2 2.7s2 2 2.6 3.1 0.8 2.2 0.8 3.2c-0.1 1.4-0.3 2.6-0.7 3.7l-3.2 8.5-22.1-8.2zm7.1-3.9l12.1 4.5 0.5-1.4c0.4-1.2 0.6-2.1 0.5-2.7s-0.5-1.2-1.2-1.8-1.9-1.2-3.7-1.9c-2.3-0.9-4.1-1.2-5.2-0.8s-1.9 1.2-2.5 2.7l-0.5 1.4z" fill="#DDBC26"/>
					<path d="m474.3 459.3c-3.7-1.1-6.3-2.8-7.9-5.1s-1.9-5-1-8.1c0.9-3.2 2.6-5.3 5.2-6.5 2.5-1.1 5.6-1.2 9.3-0.1 2.7 0.8 4.7 1.8 6.2 3s2.5 2.7 3 4.4 0.5 3.6-0.1 5.7-1.5 3.8-2.8 5c-1.2 1.2-2.8 1.9-4.9 2.3s-4.4 0.2-7-0.6zm1.7-5.8c2.3 0.7 4 0.8 5.2 0.4s2-1.3 2.3-2.5c0.4-1.3 0.2-2.4-0.6-3.4s-2.4-1.8-5-2.6c-2.1-0.6-3.8-0.7-5-0.3s-2 1.3-2.3 2.5-0.1 2.3 0.7 3.3 2.4 1.9 4.7 2.6z" fill="#DDBC26"/>
					<path d="m492.5 437.8l-23.1-4.9 2.1-10c0.4-1.9 0.9-3.2 1.5-4.1s1.5-1.5 2.6-1.9c1.2-0.4 2.5-0.4 3.9-0.1 1.3 0.3 2.3 0.7 3.2 1.4 0.8 0.7 1.5 1.4 1.9 2.4 0.3 0.6 0.4 1.4 0.5 2.3 0.4-0.7 0.8-1.1 1.2-1.4 0.2-0.2 0.7-0.4 1.4-0.7s1.2-0.5 1.6-0.5l7.3-1.5-1.4 6.8-7.7 1.7c-1 0.2-1.7 0.4-2 0.7-0.4 0.4-0.7 0.8-0.8 1.4l-0.1 0.5 9.4 2-1.5 5.9zm-12.4-9l0.5-2.5c0.1-0.3 0.1-0.8 0-1.7 0-0.4-0.2-0.8-0.5-1.1s-0.8-0.6-1.3-0.7c-0.7-0.2-1.4-0.1-1.8 0.2-0.5 0.3-0.8 1-1.1 2.1l-0.6 2.6 4.8 1.1z" fill="#DDBC26"/>
</svg>
